<svg width="350" height="277" viewBox="0 0 350 277" fill="none" xmlns="http://www.w3.org/2000/svg">
<g clip-path="url(#clip0_2230_20210)">
<rect width="350" height="277" rx="24" fill="white"/>
<rect x="179" y="109" width="155" height="155" rx="34.5117" fill="url(#paint0_linear_2230_20210)"/>
<path d="M208.465 163.189C202.069 145.987 213.095 138.358 221.061 136.141C222.412 135.765 223.81 136.374 224.612 137.524L239.109 158.325C240.051 159.676 239.948 161.48 238.976 162.809C235.661 167.344 234.464 171.192 234.035 174.187C233.679 176.666 234.564 179.129 236.052 181.143C247.45 196.566 259.78 208.164 265.833 208.448C270.269 208.656 275.686 205.218 278.64 203.047C279.959 202.078 281.763 201.964 283.125 202.872L304.341 217.016C305.506 217.793 306.139 219.184 305.842 220.552C301.97 238.359 285.229 236.467 277.034 233.121C238.587 215.26 217.244 186.803 208.465 163.189Z" fill="#FEFEFE"/>
</g>
<defs>
<linearGradient id="paint0_linear_2230_20210" x1="256.5" y1="109" x2="256.5" y2="264" gradientUnits="userSpaceOnUse">
<stop stop-color="#5CF777"/>
<stop offset="1" stop-color="#0EBC29"/>
</linearGradient>
<clipPath id="clip0_2230_20210">
<rect width="350" height="277" rx="24" fill="white"/>
</clipPath>
</defs>
</svg>
