<svg  viewBox="0 0 183 31" fill="none" xmlns="http://www.w3.org/2000/svg">
<path d="M0.635547 3.5H13.5105V6.8H8.78555V21H5.33555V6.8H0.635547V3.5ZM23.666 19.45C22.3993 20.7167 20.8327 21.35 18.966 21.35C17.0993 21.35 15.5327 20.7167 14.266 19.45C12.9993 18.1833 12.366 16.6167 12.366 14.75C12.366 12.9 12.9993 11.3417 14.266 10.075C15.5493 8.79167 17.116 8.15 18.966 8.15C20.816 8.15 22.3827 8.79167 23.666 10.075C24.9493 11.3583 25.591 12.9167 25.591 14.75C25.591 16.6 24.9493 18.1667 23.666 19.45ZM16.541 17.225C17.191 17.875 17.9993 18.2 18.966 18.2C19.9327 18.2 20.741 17.875 21.391 17.225C22.041 16.575 22.366 15.75 22.366 14.75C22.366 13.75 22.041 12.925 21.391 12.275C20.741 11.625 19.9327 11.3 18.966 11.3C17.9993 11.3 17.191 11.625 16.541 12.275C15.9077 12.9417 15.591 13.7667 15.591 14.75C15.591 15.7333 15.9077 16.5583 16.541 17.225ZM27.8598 8.5H39.2848V21H36.0598V11.525H31.0848V21H27.8598V8.5ZM55.8396 3.5V17.7H57.7146V24.35H54.2646V21H44.5896V24.35H41.1396V17.7H42.8396C43.8063 16.3667 44.2896 14.3917 44.2896 11.775V3.5H55.8396ZM46.5396 17.7H52.3896V6.725H47.7396V11.825C47.7396 14.375 47.3396 16.3333 46.5396 17.7ZM70.0283 19.45C68.7617 20.7167 67.195 21.35 65.3283 21.35C63.4617 21.35 61.895 20.7167 60.6283 19.45C59.3617 18.1833 58.7283 16.6167 58.7283 14.75C58.7283 12.9 59.3617 11.3417 60.6283 10.075C61.9117 8.79167 63.4783 8.15 65.3283 8.15C67.1783 8.15 68.745 8.79167 70.0283 10.075C71.3117 11.3583 71.9533 12.9167 71.9533 14.75C71.9533 16.6 71.3117 18.1667 70.0283 19.45ZM62.9033 17.225C63.5533 17.875 64.3617 18.2 65.3283 18.2C66.295 18.2 67.1033 17.875 67.7533 17.225C68.4033 16.575 68.7283 15.75 68.7283 14.75C68.7283 13.75 68.4033 12.925 67.7533 12.275C67.1033 11.625 66.295 11.3 65.3283 11.3C64.3617 11.3 63.5533 11.625 62.9033 12.275C62.27 12.9417 61.9533 13.7667 61.9533 14.75C61.9533 15.7333 62.27 16.5583 62.9033 17.225ZM84.0471 8.5H87.2221V21H84.0971V13.7L80.9221 18.7H80.5221L77.3221 13.65V21H74.2221V8.5H77.3971L80.7221 13.75L84.0471 8.5Z" fill="white"/>
<g filter="url(#filter0_di_1548_8696)">
<rect x="95" y="1" width="86" height="27" rx="6" fill="white"/>
</g>
<g filter="url(#filter1_d_1548_8696)">
<path d="M104.267 12.154C103.438 12.154 102.745 11.8753 102.188 11.318C101.638 10.7607 101.363 10.0713 101.363 9.25C101.363 8.42867 101.638 7.73933 102.188 7.182C102.745 6.62467 103.438 6.346 104.267 6.346C104.802 6.346 105.29 6.47433 105.73 6.731C106.17 6.98767 106.504 7.33233 106.731 7.765L105.51 8.48C105.4 8.25267 105.231 8.073 105.004 7.941C104.784 7.809 104.535 7.743 104.256 7.743C103.831 7.743 103.479 7.886 103.2 8.172C102.921 8.45067 102.782 8.81 102.782 9.25C102.782 9.67533 102.921 10.0347 103.2 10.328C103.479 10.6067 103.831 10.746 104.256 10.746C104.542 10.746 104.795 10.6837 105.015 10.559C105.242 10.427 105.411 10.2473 105.521 10.02L106.753 10.724C106.511 11.164 106.166 11.5123 105.719 11.769C105.279 12.0257 104.795 12.154 104.267 12.154ZM106.932 6.5H111.805V7.864H110.089V12H108.67V7.864H106.932V6.5ZM115.764 6.346C116.505 6.346 117.135 6.62833 117.656 7.193C118.184 7.75767 118.448 8.44333 118.448 9.25C118.448 10.0713 118.184 10.7607 117.656 11.318C117.143 11.8753 116.512 12.154 115.764 12.154C114.994 12.154 114.4 11.8863 113.982 11.351V14.2H112.563V6.5H113.982V7.149C114.4 6.61367 114.994 6.346 115.764 6.346ZM114.411 10.372C114.697 10.658 115.06 10.801 115.5 10.801C115.94 10.801 116.303 10.658 116.589 10.372C116.882 10.0787 117.029 9.70467 117.029 9.25C117.029 8.79533 116.882 8.425 116.589 8.139C116.303 7.84567 115.94 7.699 115.5 7.699C115.06 7.699 114.697 7.84567 114.411 8.139C114.125 8.425 113.982 8.79533 113.982 9.25C113.982 9.70467 114.125 10.0787 114.411 10.372ZM124.135 11.318C123.577 11.8753 122.888 12.154 122.067 12.154C121.245 12.154 120.556 11.8753 119.999 11.318C119.441 10.7607 119.163 10.0713 119.163 9.25C119.163 8.436 119.441 7.75033 119.999 7.193C120.563 6.62833 121.253 6.346 122.067 6.346C122.881 6.346 123.57 6.62833 124.135 7.193C124.699 7.75767 124.982 8.44333 124.982 9.25C124.982 10.064 124.699 10.7533 124.135 11.318ZM121 10.339C121.286 10.625 121.641 10.768 122.067 10.768C122.492 10.768 122.848 10.625 123.134 10.339C123.42 10.053 123.563 9.69 123.563 9.25C123.563 8.81 123.42 8.447 123.134 8.161C122.848 7.875 122.492 7.732 122.067 7.732C121.641 7.732 121.286 7.875 121 8.161C120.721 8.45433 120.582 8.81733 120.582 9.25C120.582 9.68267 120.721 10.0457 121 10.339ZM127.366 9.624L129.951 6.5H131.007V12H129.621V8.876L127.036 12H125.98V6.5H127.366V9.624ZM131.768 6.5H136.641V7.864H134.925V12H133.506V7.864H131.768V6.5ZM142.53 9.833H138.383C138.566 10.5223 139.083 10.867 139.934 10.867C140.477 10.867 140.887 10.6837 141.166 10.317L142.31 10.977C141.767 11.7617 140.968 12.154 139.912 12.154C139.003 12.154 138.273 11.879 137.723 11.329C137.173 10.779 136.898 10.086 136.898 9.25C136.898 8.42867 137.169 7.73933 137.712 7.182C138.247 6.62467 138.944 6.346 139.802 6.346C140.616 6.346 141.28 6.62467 141.793 7.182C142.321 7.73933 142.585 8.42867 142.585 9.25C142.585 9.404 142.567 9.59833 142.53 9.833ZM138.361 8.733H141.166C141.085 8.37367 140.92 8.09867 140.671 7.908C140.429 7.71733 140.139 7.622 139.802 7.622C139.421 7.622 139.105 7.721 138.856 7.919C138.607 8.10967 138.442 8.381 138.361 8.733ZM143.724 6.5H148.08V12H146.661V7.864H145.143V9.701C145.143 11.395 144.369 12.1613 142.822 12V10.669C143.115 10.7423 143.339 10.691 143.493 10.515C143.647 10.339 143.724 10.042 143.724 9.624V6.5ZM150.785 8.26H151.852C152.475 8.26 152.977 8.43233 153.359 8.777C153.74 9.11433 153.931 9.56533 153.931 10.13C153.931 10.6947 153.74 11.1493 153.359 11.494C152.977 11.8313 152.475 12 151.852 12H149.366V6.5H150.785V8.26ZM150.785 10.746H151.863C152.061 10.746 152.222 10.691 152.347 10.581C152.479 10.4637 152.545 10.3133 152.545 10.13C152.545 9.94667 152.479 9.79633 152.347 9.679C152.222 9.56167 152.061 9.503 151.863 9.503H150.785V10.746ZM158.431 8.579V6.5H159.85V12H158.431V9.91H156.242V12H154.823V6.5H156.242V8.579H158.431ZM165.33 7.149V6.5H166.749V12H165.33V11.351C164.905 11.8863 164.307 12.154 163.537 12.154C162.804 12.154 162.173 11.8753 161.645 11.318C161.124 10.7533 160.864 10.064 160.864 9.25C160.864 8.44333 161.124 7.75767 161.645 7.193C162.173 6.62833 162.804 6.346 163.537 6.346C164.307 6.346 164.905 6.61367 165.33 7.149ZM162.712 10.372C162.998 10.658 163.361 10.801 163.801 10.801C164.241 10.801 164.604 10.658 164.89 10.372C165.183 10.0787 165.33 9.70467 165.33 9.25C165.33 8.79533 165.183 8.425 164.89 8.139C164.604 7.84567 164.241 7.699 163.801 7.699C163.361 7.699 162.998 7.84567 162.712 8.139C162.426 8.425 162.283 8.79533 162.283 9.25C162.283 9.70467 162.426 10.0787 162.712 10.372ZM169.873 6.5H172.447V12H171.061V10.284H170.566L169.301 12H167.662L169.037 10.119C168.685 9.97233 168.402 9.74133 168.19 9.426C167.984 9.11067 167.882 8.766 167.882 8.392C167.882 7.886 168.065 7.44233 168.432 7.061C168.791 6.687 169.271 6.5 169.873 6.5ZM171.061 7.765H169.983C169.777 7.765 169.605 7.82733 169.466 7.952C169.334 8.07667 169.268 8.238 169.268 8.436C169.268 8.634 169.334 8.79167 169.466 8.909C169.605 9.02633 169.777 9.085 169.983 9.085H171.061V7.765ZM104.443 20.217L106.72 23H105.07L103.068 20.503V23H101.649V17.5H103.068V19.92L104.96 17.5H106.654L104.443 20.217ZM111.717 22.318C111.16 22.8753 110.47 23.154 109.649 23.154C108.828 23.154 108.138 22.8753 107.581 22.318C107.024 21.7607 106.745 21.0713 106.745 20.25C106.745 19.436 107.024 18.7503 107.581 18.193C108.146 17.6283 108.835 17.346 109.649 17.346C110.463 17.346 111.152 17.6283 111.717 18.193C112.282 18.7577 112.564 19.4433 112.564 20.25C112.564 21.064 112.282 21.7533 111.717 22.318ZM108.582 21.339C108.868 21.625 109.224 21.768 109.649 21.768C110.074 21.768 110.43 21.625 110.716 21.339C111.002 21.053 111.145 20.69 111.145 20.25C111.145 19.81 111.002 19.447 110.716 19.161C110.43 18.875 110.074 18.732 109.649 18.732C109.224 18.732 108.868 18.875 108.582 19.161C108.303 19.4543 108.164 19.8173 108.164 20.25C108.164 20.6827 108.303 21.0457 108.582 21.339ZM117.885 17.5H119.282V23H117.907V19.788L116.51 21.988H116.334L114.926 19.766V23H113.562V17.5H114.959L116.422 19.81L117.885 17.5ZM120.577 17.5H125.604V23H124.185V18.831H121.996V23H120.577V17.5ZM131.084 18.149V17.5H132.503V23H131.084V22.351C130.659 22.8863 130.061 23.154 129.291 23.154C128.558 23.154 127.927 22.8753 127.399 22.318C126.878 21.7533 126.618 21.064 126.618 20.25C126.618 19.4433 126.878 18.7577 127.399 18.193C127.927 17.6283 128.558 17.346 129.291 17.346C130.061 17.346 130.659 17.6137 131.084 18.149ZM128.466 21.372C128.752 21.658 129.115 21.801 129.555 21.801C129.995 21.801 130.358 21.658 130.644 21.372C130.937 21.0787 131.084 20.7047 131.084 20.25C131.084 19.7953 130.937 19.425 130.644 19.139C130.358 18.8457 129.995 18.699 129.555 18.699C129.115 18.699 128.752 18.8457 128.466 19.139C128.18 19.425 128.037 19.7953 128.037 20.25C128.037 20.7047 128.18 21.0787 128.466 21.372ZM137.398 19.579V17.5H138.817V23H137.398V20.91H135.209V23H133.79V17.5H135.209V19.579H137.398ZM141.503 20.624L144.088 17.5H145.144V23H143.758V19.876L141.173 23H140.117V17.5H141.503V20.624ZM148.281 17.5H150.855V23H149.469V21.284H148.974L147.709 23H146.07L147.445 21.119C147.093 20.9723 146.811 20.7413 146.598 20.426C146.393 20.1107 146.29 19.766 146.29 19.392C146.29 18.886 146.473 18.4423 146.84 18.061C147.199 17.687 147.68 17.5 148.281 17.5ZM149.469 18.765H148.391C148.186 18.765 148.013 18.8273 147.874 18.952C147.742 19.0767 147.676 19.238 147.676 19.436C147.676 19.634 147.742 19.7917 147.874 19.909C148.013 20.0263 148.186 20.085 148.391 20.085H149.469V18.765Z" fill="black" fill-opacity="0.8"/>
<path d="M104.267 12.154C103.438 12.154 102.745 11.8753 102.188 11.318C101.638 10.7607 101.363 10.0713 101.363 9.25C101.363 8.42867 101.638 7.73933 102.188 7.182C102.745 6.62467 103.438 6.346 104.267 6.346C104.802 6.346 105.29 6.47433 105.73 6.731C106.17 6.98767 106.504 7.33233 106.731 7.765L105.51 8.48C105.4 8.25267 105.231 8.073 105.004 7.941C104.784 7.809 104.535 7.743 104.256 7.743C103.831 7.743 103.479 7.886 103.2 8.172C102.921 8.45067 102.782 8.81 102.782 9.25C102.782 9.67533 102.921 10.0347 103.2 10.328C103.479 10.6067 103.831 10.746 104.256 10.746C104.542 10.746 104.795 10.6837 105.015 10.559C105.242 10.427 105.411 10.2473 105.521 10.02L106.753 10.724C106.511 11.164 106.166 11.5123 105.719 11.769C105.279 12.0257 104.795 12.154 104.267 12.154ZM106.932 6.5H111.805V7.864H110.089V12H108.67V7.864H106.932V6.5ZM115.764 6.346C116.505 6.346 117.135 6.62833 117.656 7.193C118.184 7.75767 118.448 8.44333 118.448 9.25C118.448 10.0713 118.184 10.7607 117.656 11.318C117.143 11.8753 116.512 12.154 115.764 12.154C114.994 12.154 114.4 11.8863 113.982 11.351V14.2H112.563V6.5H113.982V7.149C114.4 6.61367 114.994 6.346 115.764 6.346ZM114.411 10.372C114.697 10.658 115.06 10.801 115.5 10.801C115.94 10.801 116.303 10.658 116.589 10.372C116.882 10.0787 117.029 9.70467 117.029 9.25C117.029 8.79533 116.882 8.425 116.589 8.139C116.303 7.84567 115.94 7.699 115.5 7.699C115.06 7.699 114.697 7.84567 114.411 8.139C114.125 8.425 113.982 8.79533 113.982 9.25C113.982 9.70467 114.125 10.0787 114.411 10.372ZM124.135 11.318C123.577 11.8753 122.888 12.154 122.067 12.154C121.245 12.154 120.556 11.8753 119.999 11.318C119.441 10.7607 119.163 10.0713 119.163 9.25C119.163 8.436 119.441 7.75033 119.999 7.193C120.563 6.62833 121.253 6.346 122.067 6.346C122.881 6.346 123.57 6.62833 124.135 7.193C124.699 7.75767 124.982 8.44333 124.982 9.25C124.982 10.064 124.699 10.7533 124.135 11.318ZM121 10.339C121.286 10.625 121.641 10.768 122.067 10.768C122.492 10.768 122.848 10.625 123.134 10.339C123.42 10.053 123.563 9.69 123.563 9.25C123.563 8.81 123.42 8.447 123.134 8.161C122.848 7.875 122.492 7.732 122.067 7.732C121.641 7.732 121.286 7.875 121 8.161C120.721 8.45433 120.582 8.81733 120.582 9.25C120.582 9.68267 120.721 10.0457 121 10.339ZM127.366 9.624L129.951 6.5H131.007V12H129.621V8.876L127.036 12H125.98V6.5H127.366V9.624ZM131.768 6.5H136.641V7.864H134.925V12H133.506V7.864H131.768V6.5ZM142.53 9.833H138.383C138.566 10.5223 139.083 10.867 139.934 10.867C140.477 10.867 140.887 10.6837 141.166 10.317L142.31 10.977C141.767 11.7617 140.968 12.154 139.912 12.154C139.003 12.154 138.273 11.879 137.723 11.329C137.173 10.779 136.898 10.086 136.898 9.25C136.898 8.42867 137.169 7.73933 137.712 7.182C138.247 6.62467 138.944 6.346 139.802 6.346C140.616 6.346 141.28 6.62467 141.793 7.182C142.321 7.73933 142.585 8.42867 142.585 9.25C142.585 9.404 142.567 9.59833 142.53 9.833ZM138.361 8.733H141.166C141.085 8.37367 140.92 8.09867 140.671 7.908C140.429 7.71733 140.139 7.622 139.802 7.622C139.421 7.622 139.105 7.721 138.856 7.919C138.607 8.10967 138.442 8.381 138.361 8.733ZM143.724 6.5H148.08V12H146.661V7.864H145.143V9.701C145.143 11.395 144.369 12.1613 142.822 12V10.669C143.115 10.7423 143.339 10.691 143.493 10.515C143.647 10.339 143.724 10.042 143.724 9.624V6.5ZM150.785 8.26H151.852C152.475 8.26 152.977 8.43233 153.359 8.777C153.74 9.11433 153.931 9.56533 153.931 10.13C153.931 10.6947 153.74 11.1493 153.359 11.494C152.977 11.8313 152.475 12 151.852 12H149.366V6.5H150.785V8.26ZM150.785 10.746H151.863C152.061 10.746 152.222 10.691 152.347 10.581C152.479 10.4637 152.545 10.3133 152.545 10.13C152.545 9.94667 152.479 9.79633 152.347 9.679C152.222 9.56167 152.061 9.503 151.863 9.503H150.785V10.746ZM158.431 8.579V6.5H159.85V12H158.431V9.91H156.242V12H154.823V6.5H156.242V8.579H158.431ZM165.33 7.149V6.5H166.749V12H165.33V11.351C164.905 11.8863 164.307 12.154 163.537 12.154C162.804 12.154 162.173 11.8753 161.645 11.318C161.124 10.7533 160.864 10.064 160.864 9.25C160.864 8.44333 161.124 7.75767 161.645 7.193C162.173 6.62833 162.804 6.346 163.537 6.346C164.307 6.346 164.905 6.61367 165.33 7.149ZM162.712 10.372C162.998 10.658 163.361 10.801 163.801 10.801C164.241 10.801 164.604 10.658 164.89 10.372C165.183 10.0787 165.33 9.70467 165.33 9.25C165.33 8.79533 165.183 8.425 164.89 8.139C164.604 7.84567 164.241 7.699 163.801 7.699C163.361 7.699 162.998 7.84567 162.712 8.139C162.426 8.425 162.283 8.79533 162.283 9.25C162.283 9.70467 162.426 10.0787 162.712 10.372ZM169.873 6.5H172.447V12H171.061V10.284H170.566L169.301 12H167.662L169.037 10.119C168.685 9.97233 168.402 9.74133 168.19 9.426C167.984 9.11067 167.882 8.766 167.882 8.392C167.882 7.886 168.065 7.44233 168.432 7.061C168.791 6.687 169.271 6.5 169.873 6.5ZM171.061 7.765H169.983C169.777 7.765 169.605 7.82733 169.466 7.952C169.334 8.07667 169.268 8.238 169.268 8.436C169.268 8.634 169.334 8.79167 169.466 8.909C169.605 9.02633 169.777 9.085 169.983 9.085H171.061V7.765ZM104.443 20.217L106.72 23H105.07L103.068 20.503V23H101.649V17.5H103.068V19.92L104.96 17.5H106.654L104.443 20.217ZM111.717 22.318C111.16 22.8753 110.47 23.154 109.649 23.154C108.828 23.154 108.138 22.8753 107.581 22.318C107.024 21.7607 106.745 21.0713 106.745 20.25C106.745 19.436 107.024 18.7503 107.581 18.193C108.146 17.6283 108.835 17.346 109.649 17.346C110.463 17.346 111.152 17.6283 111.717 18.193C112.282 18.7577 112.564 19.4433 112.564 20.25C112.564 21.064 112.282 21.7533 111.717 22.318ZM108.582 21.339C108.868 21.625 109.224 21.768 109.649 21.768C110.074 21.768 110.43 21.625 110.716 21.339C111.002 21.053 111.145 20.69 111.145 20.25C111.145 19.81 111.002 19.447 110.716 19.161C110.43 18.875 110.074 18.732 109.649 18.732C109.224 18.732 108.868 18.875 108.582 19.161C108.303 19.4543 108.164 19.8173 108.164 20.25C108.164 20.6827 108.303 21.0457 108.582 21.339ZM117.885 17.5H119.282V23H117.907V19.788L116.51 21.988H116.334L114.926 19.766V23H113.562V17.5H114.959L116.422 19.81L117.885 17.5ZM120.577 17.5H125.604V23H124.185V18.831H121.996V23H120.577V17.5ZM131.084 18.149V17.5H132.503V23H131.084V22.351C130.659 22.8863 130.061 23.154 129.291 23.154C128.558 23.154 127.927 22.8753 127.399 22.318C126.878 21.7533 126.618 21.064 126.618 20.25C126.618 19.4433 126.878 18.7577 127.399 18.193C127.927 17.6283 128.558 17.346 129.291 17.346C130.061 17.346 130.659 17.6137 131.084 18.149ZM128.466 21.372C128.752 21.658 129.115 21.801 129.555 21.801C129.995 21.801 130.358 21.658 130.644 21.372C130.937 21.0787 131.084 20.7047 131.084 20.25C131.084 19.7953 130.937 19.425 130.644 19.139C130.358 18.8457 129.995 18.699 129.555 18.699C129.115 18.699 128.752 18.8457 128.466 19.139C128.18 19.425 128.037 19.7953 128.037 20.25C128.037 20.7047 128.18 21.0787 128.466 21.372ZM137.398 19.579V17.5H138.817V23H137.398V20.91H135.209V23H133.79V17.5H135.209V19.579H137.398ZM141.503 20.624L144.088 17.5H145.144V23H143.758V19.876L141.173 23H140.117V17.5H141.503V20.624ZM148.281 17.5H150.855V23H149.469V21.284H148.974L147.709 23H146.07L147.445 21.119C147.093 20.9723 146.811 20.7413 146.598 20.426C146.393 20.1107 146.29 19.766 146.29 19.392C146.29 18.886 146.473 18.4423 146.84 18.061C147.199 17.687 147.68 17.5 148.281 17.5ZM149.469 18.765H148.391C148.186 18.765 148.013 18.8273 147.874 18.952C147.742 19.0767 147.676 19.238 147.676 19.436C147.676 19.634 147.742 19.7917 147.874 19.909C148.013 20.0263 148.186 20.085 148.391 20.085H149.469V18.765Z" fill="url(#paint0_linear_1548_8696)"/>
</g>
<defs>
<filter id="filter0_di_1548_8696" x="93.1" y="0.1" width="89.8" height="31.9" filterUnits="userSpaceOnUse" color-interpolation-filters="sRGB">
<feFlood flood-opacity="0" result="BackgroundImageFix"/>
<feColorMatrix in="SourceAlpha" type="matrix" values="0 0 0 0 0 0 0 0 0 0 0 0 0 0 0 0 0 0 127 0" result="hardAlpha"/>
<feOffset dy="1"/>
<feGaussianBlur stdDeviation="0.95"/>
<feComposite in2="hardAlpha" operator="out"/>
<feColorMatrix type="matrix" values="0 0 0 0 0 0 0 0 0 0 0 0 0 0 0 0 0 0 0.1 0"/>
<feBlend mode="normal" in2="BackgroundImageFix" result="effect1_dropShadow_1548_8696"/>
<feBlend mode="normal" in="SourceGraphic" in2="effect1_dropShadow_1548_8696" result="shape"/>
<feColorMatrix in="SourceAlpha" type="matrix" values="0 0 0 0 0 0 0 0 0 0 0 0 0 0 0 0 0 0 127 0" result="hardAlpha"/>
<feOffset dy="4"/>
<feGaussianBlur stdDeviation="2"/>
<feComposite in2="hardAlpha" operator="arithmetic" k2="-1" k3="1"/>
<feColorMatrix type="matrix" values="0 0 0 0 0.764423 0 0 0 0 0.764423 0 0 0 0 0.764423 0 0 0 0.18 0"/>
<feBlend mode="normal" in2="shape" result="effect2_innerShadow_1548_8696"/>
</filter>
<filter id="filter1_d_1548_8696" x="100.659" y="6.34599" width="72.4859" height="18.508" filterUnits="userSpaceOnUse" color-interpolation-filters="sRGB">
<feFlood flood-opacity="0" result="BackgroundImageFix"/>
<feColorMatrix in="SourceAlpha" type="matrix" values="0 0 0 0 0 0 0 0 0 0 0 0 0 0 0 0 0 0 127 0" result="hardAlpha"/>
<feOffset dy="1"/>
<feGaussianBlur stdDeviation="0.35"/>
<feComposite in2="hardAlpha" operator="out"/>
<feColorMatrix type="matrix" values="0 0 0 0 0.677885 0 0 0 0 0.677885 0 0 0 0 0.677885 0 0 0 0.25 0"/>
<feBlend mode="normal" in2="BackgroundImageFix" result="effect1_dropShadow_1548_8696"/>
<feBlend mode="normal" in="SourceGraphic" in2="effect1_dropShadow_1548_8696" result="shape"/>
</filter>
<linearGradient id="paint0_linear_1548_8696" x1="102.979" y1="10.5625" x2="206.524" y2="6.90335" gradientUnits="userSpaceOnUse">
<stop stop-color="#0043D3"/>
<stop offset="0.330576" stop-color="#459BE2"/>
<stop offset="0.590105" stop-color="#24A3F9"/>
<stop offset="0.98499" stop-color="#B3E9FF"/>
</linearGradient>
</defs>
</svg>
