<svg width="19" height="19" viewBox="0 0 19 19" fill="none" xmlns="http://www.w3.org/2000/svg">
<path d="M6.91309 10.4303C7.80596 10.4303 8.52227 11.1532 8.52246 12.0524V14.2116C8.52246 15.1046 7.80609 15.8327 6.91309 15.8327H4.77246C3.88592 15.8325 3.16406 15.1045 3.16406 14.2116V12.0524C3.16426 11.1533 3.88604 10.4305 4.77246 10.4303H6.91309ZM14.2217 10.4303C15.1082 10.4303 15.8309 11.1532 15.8311 12.0524V14.2116C15.8311 15.1046 15.1083 15.8327 14.2217 15.8327H12.0811C11.1882 15.8325 10.4727 15.1044 10.4727 14.2116V12.0524C10.4729 11.1534 11.1884 10.4305 12.0811 10.4303H14.2217ZM6.91309 3.16666C7.80609 3.16666 8.52246 3.89509 8.52246 4.78873V6.94791C8.52233 7.84712 7.806 8.569 6.91309 8.569H4.77246C3.886 8.56885 3.1642 7.84703 3.16406 6.94791V4.78873C3.16406 3.89518 3.88592 3.1668 4.77246 3.16666H6.91309ZM14.2217 3.16666C15.1083 3.16666 15.8311 3.89509 15.8311 4.78873V6.94791C15.8309 7.84712 15.1083 8.569 14.2217 8.569H12.0811C11.1883 8.56878 10.4728 7.84699 10.4727 6.94791V4.78873C10.4727 3.89523 11.1882 3.16688 12.0811 3.16666H14.2217Z" fill="white"/>
<rect x="0.5" y="0.5" width="18" height="18" rx="2.5" stroke="white"/>
</svg>
