<svg width="19" height="19" viewBox="0 0 19 19" fill="none" xmlns="http://www.w3.org/2000/svg">
<path d="M10.0693 1.5834C10.6678 1.58349 11.2094 1.91602 11.5088 2.40665C11.6544 2.64405 11.7517 2.9369 11.7275 3.24551C11.7114 3.48301 11.7846 3.72111 11.9141 3.94278C12.3267 4.6154 13.2403 4.86843 13.9521 4.48868C14.753 4.02958 15.7643 4.30676 16.2256 5.09024L16.7676 6.02481C17.2368 6.80856 16.978 7.8138 16.1689 8.26505C15.4815 8.66887 15.2388 9.5638 15.6514 10.2445C15.7808 10.4582 15.9268 10.6406 16.1533 10.7514C16.4363 10.9018 16.6549 11.139 16.8086 11.3764C17.1079 11.8672 17.0832 12.469 16.792 12.9994L16.2256 13.9496C15.9262 14.456 15.3682 14.7729 14.7939 14.7729C14.5109 14.7729 14.1954 14.6937 13.9365 14.5356C13.7262 14.401 13.4834 14.353 13.2246 14.3529C12.4238 14.3529 11.7521 15.0098 11.7275 15.7934C11.7275 16.7038 10.9831 17.4164 10.0527 17.4164H8.95215C8.01387 17.4162 7.26953 16.7036 7.26953 15.7934C7.2531 15.0099 6.582 14.353 5.78125 14.3529C5.51426 14.3529 5.2716 14.401 5.06934 14.5356C4.81056 14.6938 4.48688 14.7728 4.21191 14.7729C3.62951 14.7729 3.07087 14.4561 2.77148 13.9496L2.21289 12.9994C1.91355 12.4848 1.89792 11.8672 2.19727 11.3764C2.32672 11.1389 2.56967 10.9018 2.84473 10.7514C3.07101 10.6406 3.21609 10.458 3.35352 10.2445C3.75804 9.5637 3.51582 8.6688 2.82812 8.26505C2.02719 7.81381 1.7684 6.80855 2.22949 6.02481L2.77148 5.09024C3.24073 4.30672 4.24379 4.02976 5.05273 4.48868C5.7566 4.86867 6.67136 4.61567 7.08398 3.94278C7.21343 3.72111 7.28571 3.48301 7.26953 3.24551C7.25345 2.93693 7.34246 2.64404 7.49609 2.40665C7.79544 1.91581 8.3381 1.59924 8.92871 1.5834H10.0693ZM9.51074 7.26797C8.24059 7.26804 7.21289 8.26533 7.21289 9.50821C7.21301 10.751 8.24066 11.7406 9.51074 11.7406C10.7809 11.7406 11.7841 10.751 11.7842 9.50821C11.7842 8.26529 10.781 7.26797 9.51074 7.26797Z" fill="white"/>
</svg>
