<svg width="88" height="22" viewBox="0 0 88 22" fill="none" xmlns="http://www.w3.org/2000/svg">
<path d="M0.635547 0.499999H13.5105V3.8H8.78555V18H5.33555V3.8H0.635547V0.499999ZM23.666 16.45C22.3993 17.7167 20.8327 18.35 18.966 18.35C17.0993 18.35 15.5327 17.7167 14.266 16.45C12.9993 15.1833 12.366 13.6167 12.366 11.75C12.366 9.9 12.9993 8.34167 14.266 7.075C15.5493 5.79167 17.116 5.15 18.966 5.15C20.816 5.15 22.3827 5.79167 23.666 7.075C24.9493 8.35833 25.591 9.91667 25.591 11.75C25.591 13.6 24.9493 15.1667 23.666 16.45ZM16.541 14.225C17.191 14.875 17.9993 15.2 18.966 15.2C19.9327 15.2 20.741 14.875 21.391 14.225C22.041 13.575 22.366 12.75 22.366 11.75C22.366 10.75 22.041 9.925 21.391 9.275C20.741 8.625 19.9327 8.3 18.966 8.3C17.9993 8.3 17.191 8.625 16.541 9.275C15.9077 9.94167 15.591 10.7667 15.591 11.75C15.591 12.7333 15.9077 13.5583 16.541 14.225ZM27.8598 5.5H39.2848V18H36.0598V8.525H31.0848V18H27.8598V5.5ZM55.8396 0.499999V14.7H57.7146V21.35H54.2646V18H44.5896V21.35H41.1396V14.7H42.8396C43.8063 13.3667 44.2896 11.3917 44.2896 8.775V0.499999H55.8396ZM46.5396 14.7H52.3896V3.725H47.7396V8.825C47.7396 11.375 47.3396 13.3333 46.5396 14.7ZM70.0283 16.45C68.7617 17.7167 67.195 18.35 65.3283 18.35C63.4617 18.35 61.895 17.7167 60.6283 16.45C59.3617 15.1833 58.7283 13.6167 58.7283 11.75C58.7283 9.9 59.3617 8.34167 60.6283 7.075C61.9117 5.79167 63.4783 5.15 65.3283 5.15C67.1783 5.15 68.745 5.79167 70.0283 7.075C71.3117 8.35833 71.9533 9.91667 71.9533 11.75C71.9533 13.6 71.3117 15.1667 70.0283 16.45ZM62.9033 14.225C63.5533 14.875 64.3617 15.2 65.3283 15.2C66.295 15.2 67.1033 14.875 67.7533 14.225C68.4033 13.575 68.7283 12.75 68.7283 11.75C68.7283 10.75 68.4033 9.925 67.7533 9.275C67.1033 8.625 66.295 8.3 65.3283 8.3C64.3617 8.3 63.5533 8.625 62.9033 9.275C62.27 9.94167 61.9533 10.7667 61.9533 11.75C61.9533 12.7333 62.27 13.5583 62.9033 14.225ZM84.0471 5.5H87.2221V18H84.0971V10.7L80.9221 15.7H80.5221L77.3221 10.65V18H74.2221V5.5H77.3971L80.7221 10.75L84.0471 5.5Z" fill="white"/>
</svg>
