<svg width="50" height="52" viewBox="0 0 50 52" fill="none" xmlns="http://www.w3.org/2000/svg">
<g filter="url(#filter0_di_769_2)">
<rect x="4" width="42" height="43.3125" rx="11" fill="white"/>
<rect x="5" y="1" width="40" height="41.3125" rx="10" stroke="white" stroke-width="2"/>
</g>
<path d="M16.9393 20.9393C16.3536 21.5251 16.3536 22.4749 16.9393 23.0607L26.4853 32.6066C27.0711 33.1924 28.0208 33.1924 28.6066 32.6066C29.1924 32.0208 29.1924 31.0711 28.6066 30.4853L20.1213 22L28.6066 13.5147C29.1924 12.9289 29.1924 11.9792 28.6066 11.3934C28.0208 10.8076 27.0711 10.8076 26.4853 11.3934L16.9393 20.9393ZM19 22V20.5H18V22V23.5H19V22Z" fill="black"/>
<path d="M16.9393 20.9393C16.3536 21.5251 16.3536 22.4749 16.9393 23.0607L26.4853 32.6066C27.0711 33.1924 28.0208 33.1924 28.6066 32.6066C29.1924 32.0208 29.1924 31.0711 28.6066 30.4853L20.1213 22L28.6066 13.5147C29.1924 12.9289 29.1924 11.9792 28.6066 11.3934C28.0208 10.8076 27.0711 10.8076 26.4853 11.3934L16.9393 20.9393ZM19 22V20.5H18V22V23.5H19V22Z" fill="url(#paint0_linear_769_2)"/>
<path d="M16.9393 20.9393C16.3536 21.5251 16.3536 22.4749 16.9393 23.0607L26.4853 32.6066C27.0711 33.1924 28.0208 33.1924 28.6066 32.6066C29.1924 32.0208 29.1924 31.0711 28.6066 30.4853L20.1213 22L28.6066 13.5147C29.1924 12.9289 29.1924 11.9792 28.6066 11.3934C28.0208 10.8076 27.0711 10.8076 26.4853 11.3934L16.9393 20.9393ZM19 22V20.5H18V22V23.5H19V22Z" fill="url(#paint1_linear_769_2)"/>
<defs>
<filter id="filter0_di_769_2" x="0" y="0" width="50" height="51.3125" filterUnits="userSpaceOnUse" color-interpolation-filters="sRGB">
<feFlood flood-opacity="0" result="BackgroundImageFix"/>
<feColorMatrix in="SourceAlpha" type="matrix" values="0 0 0 0 0 0 0 0 0 0 0 0 0 0 0 0 0 0 127 0" result="hardAlpha"/>
<feOffset dy="4"/>
<feGaussianBlur stdDeviation="2"/>
<feComposite in2="hardAlpha" operator="out"/>
<feColorMatrix type="matrix" values="0 0 0 0 0.0572069 0 0 0 0 0.420287 0 0 0 0 0.793269 0 0 0 0.25 0"/>
<feBlend mode="normal" in2="BackgroundImageFix" result="effect1_dropShadow_769_2"/>
<feBlend mode="normal" in="SourceGraphic" in2="effect1_dropShadow_769_2" result="shape"/>
<feColorMatrix in="SourceAlpha" type="matrix" values="0 0 0 0 0 0 0 0 0 0 0 0 0 0 0 0 0 0 127 0" result="hardAlpha"/>
<feOffset dy="4"/>
<feGaussianBlur stdDeviation="2"/>
<feComposite in2="hardAlpha" operator="arithmetic" k2="-1" k3="1"/>
<feColorMatrix type="matrix" values="0 0 0 0 0 0 0 0 0 0 0 0 0 0 0 0 0 0 0.05 0"/>
<feBlend mode="normal" in2="shape" result="effect2_innerShadow_769_2"/>
</filter>
<linearGradient id="paint0_linear_769_2" x1="28.5" y1="32.5" x2="17.6292" y2="21.5621" gradientUnits="userSpaceOnUse">
<stop stop-color="#177CCE"/>
<stop offset="0.5" stop-color="#24A3F9"/>
<stop offset="1" stop-color="#56CCFB"/>
</linearGradient>
<linearGradient id="paint1_linear_769_2" x1="30" y1="32.5" x2="18.5" y2="21" gradientUnits="userSpaceOnUse">
<stop stop-color="#414141"/>
<stop offset="1" stop-color="#666666"/>
</linearGradient>
</defs>
</svg>
