<svg width="19" height="19" viewBox="0 0 19 19" fill="none" xmlns="http://www.w3.org/2000/svg">
<path d="M15.8252 15.0049C16.2661 15.0049 16.6248 15.3678 16.625 15.8145C16.625 16.2621 16.2662 16.625 15.8252 16.625H11.3047C10.8637 16.625 10.5049 16.2621 10.5049 15.8145C10.5051 15.3679 10.8638 15.0049 11.3047 15.0049H15.8252ZM9.69141 3.13281C10.4139 2.20521 11.6739 2.12024 12.6904 2.92871L13.8584 3.85645C14.337 4.23085 14.6564 4.7242 14.7656 5.24316C14.8916 5.81419 14.7569 6.37528 14.3789 6.86035L7.42285 15.8555C7.10362 16.2639 6.63292 16.4934 6.12891 16.502L3.35742 16.5361C3.20621 16.5361 3.0795 16.4337 3.0459 16.2891L2.41602 13.5576C2.30684 13.0556 2.41622 12.5367 2.73535 12.1367L7.66699 5.75391C7.75102 5.6519 7.90216 5.63523 8.00293 5.71094L10.0781 7.3623C10.2125 7.47272 10.3969 7.53227 10.5898 7.50684C11.0014 7.45579 11.2792 7.08153 11.2373 6.68164C11.2121 6.4775 11.1109 6.30732 10.9766 6.17969C10.9346 6.14565 8.95996 4.5625 8.95996 4.5625C8.83411 4.46036 8.80943 4.27323 8.91016 4.14648L9.69141 3.13281Z" fill="white"/>
</svg>
