<svg width="19" height="19" viewBox="0 0 19 19" fill="none" xmlns="http://www.w3.org/2000/svg">
<path d="M7.90137 14.6947C7.90114 16.1986 6.70322 17.4164 5.22559 17.4164C3.74883 17.4163 2.55101 16.1986 2.55078 14.6947C2.55078 13.1914 3.74869 11.972 5.22559 11.972C6.70336 11.972 7.90137 13.1914 7.90137 14.6947ZM6.36621 7.98276C6.36613 8.64138 5.84138 9.17588 5.19434 9.17612C4.54796 9.17612 4.02156 8.64153 4.02148 7.98276L4.02148 2.7767C4.02164 2.118 4.54801 1.58334 5.19434 1.58334C5.84133 1.58358 6.36606 2.11814 6.36621 2.7767L6.36621 7.98276ZM16.625 4.306C16.6249 5.81006 15.427 7.02866 13.9502 7.02866C12.4725 7.02859 11.2745 5.81002 11.2744 4.306C11.2744 2.80276 12.4725 1.5834 13.9502 1.58334C15.4271 1.58334 16.625 2.80272 16.625 4.306ZM15.1221 16.224C15.122 16.8819 14.5966 17.4164 13.9502 17.4164C13.303 17.4163 12.7774 16.8819 12.7773 16.224L12.7773 11.0179C12.7775 10.3593 13.3031 9.82462 13.9502 9.82455C14.5965 9.82455 15.1219 10.3592 15.1221 11.0179L15.1221 16.224Z" fill="white"/>
</svg>
