<svg width="32" height="33" viewBox="0 0 32 33" fill="none" xmlns="http://www.w3.org/2000/svg">
<rect x="1" y="1" width="30" height="31" rx="10" fill="#D9D9D9"/>
<rect x="1" y="1" width="30" height="31" rx="10" fill="url(#paint0_linear_1512_13611)"/>
<rect x="1" y="1" width="30" height="31" rx="10" fill="url(#paint1_linear_1512_13611)"/>
<rect x="1" y="1" width="30" height="31" rx="10" fill="url(#paint2_linear_1512_13611)"/>
<rect x="1" y="1" width="30" height="31" rx="10" stroke="white" stroke-width="2"/>
<path d="M12.1865 21.7561C12.8774 21.7564 13.4433 22.3349 13.4434 23.0491C13.4434 23.7548 12.8774 24.333 12.1865 24.3332C11.4871 24.3332 10.9199 23.7549 10.9199 23.0491C10.92 22.3348 11.4871 21.7561 12.1865 21.7561ZM21.5537 21.7561C22.2448 21.7561 22.8115 22.3348 22.8115 23.0491C22.8115 23.7549 22.2448 24.3332 21.5537 24.3332C20.8543 24.3332 20.2881 23.7549 20.2881 23.0491C20.2882 22.3348 20.8543 21.7561 21.5537 21.7561ZM8.39746 7.67406L10.3838 7.97973C10.6667 8.03176 10.8744 8.26885 10.8994 8.55785L11.0576 10.4622C11.0826 10.735 11.2992 10.9395 11.5654 10.9397H22.8115C23.3192 10.9397 23.6524 11.118 23.9854 11.509C24.3184 11.9001 24.3766 12.4616 24.3018 12.9709L23.5107 18.55C23.3609 19.6223 22.4617 20.4122 21.4043 20.4123H12.3193C11.2119 20.4123 10.2957 19.5456 10.2041 18.4231L9.43848 9.15258L8.18066 8.93188C7.84779 8.8722 7.61465 8.54046 7.67285 8.20043C7.73114 7.85262 8.05607 7.62221 8.39746 7.67406ZM17.7656 14.0852C17.416 14.0852 17.1407 14.3658 17.1406 14.7229C17.1406 15.0716 17.4159 15.3606 17.7656 15.3606H20.0713C20.421 15.3606 20.6963 15.0716 20.6963 14.7229C20.6962 14.3658 20.4209 14.0852 20.0713 14.0852H17.7656Z" fill="white"/>
<defs>
<linearGradient id="paint0_linear_1512_13611" x1="7.20792" y1="6.1875" x2="44.1641" y2="9.38249" gradientUnits="userSpaceOnUse">
<stop stop-color="#53CCFF"/>
<stop offset="1" stop-color="#97E8FF"/>
</linearGradient>
<linearGradient id="paint1_linear_1512_13611" x1="-7.19577" y1="16.0286" x2="42.3271" y2="15.8174" gradientUnits="userSpaceOnUse">
<stop stop-color="#177CCE"/>
<stop offset="0.5" stop-color="#24A3F9"/>
<stop offset="1" stop-color="#56CCFB"/>
</linearGradient>
<linearGradient id="paint2_linear_1512_13611" x1="5.42861e-09" y1="11.3437" x2="31.9994" y2="11.2017" gradientUnits="userSpaceOnUse">
<stop stop-color="#2463EB"/>
<stop offset="0.5" stop-color="#2186D9"/>
<stop offset="1" stop-color="#42B3FF"/>
</linearGradient>
</defs>
</svg>
